<svg version="1.1" viewBox="0.0 0.0 960.0 960.0" fill="none" stroke="none" stroke-linecap="square" stroke-miterlimit="10" xmlns:xlink="http://www.w3.org/1999/xlink" xmlns="http://www.w3.org/2000/svg"><clipPath id="g10c323832b5_0_0.0"><path d="m0 0l960.0 0l0 960.0l-960.0 0l0 -960.0z" clip-rule="nonzero"/></clipPath><g clip-path="url(#g10c323832b5_0_0.0)"><path fill="#ffffff" d="m0 0l960.0 0l0 960.0l-960.0 0z" fill-rule="evenodd"/><path fill="#000000" fill-opacity="0.0" d="m0.010498688 -0.0131233595l960.0 0l0 960.0l-960.0 0z" fill-rule="evenodd"/><path fill="#000000" fill-opacity="0.0" d="m48.471283 180.51962l512.02405 0l0 407.94595l-512.02405 0l0 -407.94595z" fill-rule="nonzero"/><path fill="#3d85c6" d="m153.22128 508.48248q-27.78125 0 -53.71875 -7.53125q-25.9375 -7.53125 -41.65625 -19.578125l18.40625 -40.828125q15.0625 11.046875 35.796875 17.75q20.75 6.6875 41.5 6.6875q23.09375 0 34.140625 -6.859375q11.046875 -6.859375 11.046875 -18.25q0 -8.359375 -6.53125 -13.875q-6.53125 -5.53125 -16.734375 -8.875q-10.203125 -3.34375 -27.609375 -7.359375q-26.765625 -6.359375 -43.84375 -12.71875q-17.0625 -6.359375 -29.28125 -20.40625q-12.203125 -14.0625 -12.203125 -37.484375q0 -20.421875 11.03125 -36.984375q11.046875 -16.5625 33.296875 -26.265625q22.265625 -9.71875 54.390625 -9.71875q22.421875 0 43.828125 5.359375q21.421875 5.359375 37.484375 15.390625l-16.71875 41.171875q-32.46875 -18.40625 -64.9375 -18.40625q-22.75 0 -33.625 7.359375q-10.875 7.359375 -10.875 19.40625q0 12.046875 12.546875 17.90625q12.546875 5.859375 38.3125 11.546875q26.78125 6.359375 43.84375 12.71875q17.0625 6.359375 29.28125 20.078125q12.21875 13.71875 12.21875 37.140625q0 20.078125 -11.21875 36.65625q-11.203125 16.5625 -33.625 26.265625q-22.421875 9.703125 -54.546875 9.703125zm219.87006 -1.34375q-28.78125 0 -51.703125 -11.875q-22.921875 -11.875 -35.8125 -32.953125q-12.890625 -21.09375 -12.890625 -47.859375q0 -26.78125 12.890625 -47.859375q12.890625 -21.09375 35.8125 -32.96875q22.921875 -11.875 51.703125 -11.875q28.4375 0 49.6875 11.875q21.25 11.875 30.96875 33.96875l-40.5 21.75q-14.0625 -24.765625 -40.5 -24.765625q-20.40625 0 -33.796875 13.390625q-13.390625 13.390625 -13.390625 36.484375q0 23.078125 13.390625 36.46875q13.390625 13.390625 33.796875 13.390625q26.78125 0 40.5 -24.765625l40.5 22.078125q-9.71875 21.421875 -30.96875 33.46875q-21.25 12.046875 -49.6875 12.046875zm110.766205 -182.71875l52.203125 0l0 180.04688l-52.203125 0l0 -180.04688zm26.109375 -25.09375q-14.390625 0 -23.4375 -8.359375q-9.03125 -8.375 -9.03125 -20.765625q0 -12.375 9.03125 -20.734375q9.046875 -8.375 23.4375 -8.375q14.390625 0 23.421875 8.03125q9.03125 8.03125 9.03125 20.078125q0 13.046875 -9.03125 21.59375q-9.03125 8.53125 -23.421875 8.53125z" fill-rule="nonzero"/><path fill="#000000" d="m815.16724 321.7481q33.796875 0 53.703125 19.921875q19.921875 19.90625 19.921875 59.71875l0 103.078125l-52.203125 0l0 -95.046875q0 -21.40625 -8.875 -31.953125q-8.859375 -10.546875 -25.265625 -10.546875q-18.40625 0 -29.125 11.890625q-10.703125 11.875 -10.703125 35.296875l0 90.359375l-52.203125 0l0 -95.046875q0 -42.5 -34.125 -42.5q-18.078125 0 -28.796875 11.890625q-10.703125 11.875 -10.703125 35.296875l0 90.359375l-52.203125 0l0 -180.04688l49.859375 0l0 20.75q10.046875 -11.375 24.59375 -17.390625q14.5625 -6.03125 31.96875 -6.03125q19.078125 0 34.46875 7.53125q15.390625 7.53125 24.765625 21.921875q11.046875 -14.0625 27.9375 -21.75q16.90625 -7.703125 36.984375 -7.703125z" fill-rule="nonzero"/><path fill="#3d85c6" d="m48.471283 526.2202l512.02405 0l0 30.119995l-512.02405 0l0 -30.119995z" fill-rule="nonzero"/><path fill="#000000" d="m109.855896 626.38684q14.875 0 25.828125 4.96875q10.96875 4.953125 16.890625 14.078125q5.921875 9.109375 5.921875 21.59375q0 12.3125 -5.921875 21.515625q-5.921875 9.203125 -16.890625 14.09375q-10.953125 4.875 -25.828125 4.875l-22.5625 0l0 30.875l-25.921875 0l0 -112.0l48.484375 0zm-1.453125 60.0q11.6875 0 17.765625 -5.03125q6.078125 -5.046875 6.078125 -14.328125q0 -9.4375 -6.078125 -14.46875q-6.078125 -5.046875 -17.765625 -5.046875l-21.109375 0l0 38.875l21.109375 0zm68.32318 -66.71875l24.96875 0l0 118.71875l-24.96875 0l0 -118.71875zm89.128784 120.0q-13.60939 0 -24.406265 -5.671875q-10.796875 -5.6875 -16.875 -15.765625q-6.078125 -10.078125 -6.078125 -22.890625q0 -12.796875 6.078125 -22.875q6.078125 -10.078125 16.875 -15.75q10.796875 -5.6875 24.406265 -5.6875q13.59375 0 24.3125 5.6875q10.71875 5.671875 16.796875 15.75q6.09375 10.078125 6.09375 22.875q0 12.8125 -6.09375 22.890625q-6.078125 10.078125 -16.796875 15.765625q-10.71875 5.671875 -24.3125 5.671875zm0 -20.484375q9.59375 0 15.75 -6.46875q6.171875 -6.484375 6.171875 -17.375q0 -10.875 -6.171875 -17.34375q-6.15625 -6.484375 -15.75 -6.484375q-9.609375 0 -15.843765 6.484375q-6.234375 6.46875 -6.234375 17.34375q0 10.890625 6.234375 17.375q6.2343903 6.46875 15.843765 6.46875zm119.36255 15.046875q-3.6875 2.71875 -9.046875 4.078125q-5.359375 1.359375 -11.28125 1.359375q-15.359375 0 -23.765625 -7.84375q-8.390625 -7.84375 -8.390625 -23.03125l0 -35.359375l-13.28125 0l0 -19.203125l13.28125 0l0 -20.96875l24.953125 0l0 20.96875l21.4375 0l0 19.203125l-21.4375 0l0 35.03125q0 5.4375 2.796875 8.40625q2.8125 2.953125 7.921875 2.953125q5.921875 0 10.078125 -3.203125l6.734375 17.609375zm123.50629 -107.84375l-48.46875 112.0l-25.609375 0l-48.3125 -112.0l28.0 0l34.078125 80.0l34.5625 -80.0l25.75 0zm9.288208 0l25.921875 0l0 112.0l-25.921875 0l0 -112.0zm89.27692 113.921875q-13.28125 0 -25.6875 -3.59375q-12.390625 -3.609375 -19.90625 -9.375l8.796875 -19.515625q7.203125 5.28125 17.109375 8.484375q9.921875 3.203125 19.84375 3.203125q11.046875 0 16.328125 -3.28125q5.28125 -3.28125 5.28125 -8.71875q0 -4.0 -3.125 -6.640625q-3.125 -2.640625 -8.0 -4.234375q-4.875 -1.609375 -13.203125 -3.53125q-12.796875 -3.03125 -20.953125 -6.078125q-8.15625 -3.046875 -14.0 -9.765625q-5.84375 -6.71875 -5.84375 -17.921875q0 -9.75 5.28125 -17.671875q5.28125 -7.921875 15.921875 -12.5625q10.640625 -4.640625 26.0 -4.640625q10.71875 0 20.953125 2.5625q10.25 2.5625 17.921875 7.359375l-8.0 19.6875q-15.515625 -8.8125 -31.03125 -8.8125q-10.890625 0 -16.09375 3.53125q-5.1875 3.515625 -5.1875 9.28125q0 5.75 6.0 8.5625q6.0 2.796875 18.3125 5.515625q12.796875 3.03125 20.953125 6.078125q8.171875 3.03125 14.0 9.59375q5.84375 6.5625 5.84375 17.765625q0 9.59375 -5.359375 17.515625q-5.359375 7.921875 -16.078125 12.5625q-10.71875 4.640625 -26.078125 4.640625zm119.51752 0q-17.4375 0 -31.4375 -7.515625q-14.0 -7.53125 -21.921875 -20.71875q-7.921875 -13.203125 -7.921875 -29.6875q0 -16.484375 7.921875 -29.671875q7.921875 -13.203125 21.921875 -20.71875q14.0 -7.53125 31.4375 -7.53125q17.4375 0 31.359375 7.53125q13.921875 7.515625 21.921875 20.71875q8.0 13.1875 8.0 29.671875q0 16.484375 -8.0 29.6875q-8.0 13.1875 -21.921875 20.71875q-13.921875 7.515625 -31.359375 7.515625zm0 -22.078125q9.921875 0 17.921875 -4.5625q8.0 -4.5625 12.5625 -12.71875q4.5625 -8.15625 4.5625 -18.5625q0 -10.40625 -4.5625 -18.5625q-4.5625 -8.15625 -12.5625 -12.71875q-8.0 -4.5625 -17.921875 -4.5625q-9.921875 0 -17.921875 4.5625q-8.0 4.5625 -12.5625 12.71875q-4.546875 8.15625 -4.546875 18.5625q0 10.40625 4.546875 18.5625q4.5625 8.15625 12.5625 12.71875q8.0 4.5625 17.921875 4.5625z" fill-rule="nonzero"/><path fill="#000000" d="m878.97125 738.38684l-21.59375 -31.203125l-1.28125 0l-22.5625 0l0 31.203125l-25.921875 0l0 -112.0l48.484375 0q14.875 0 25.828125 4.96875q10.96875 4.953125 16.890625 14.078125q5.921875 9.109375 5.921875 21.59375q0 12.484375 -6.0 21.53125q-6.0 9.03125 -17.046875 13.828125l25.125 36.0l-27.84375 0zm-0.484375 -71.359375q0 -9.4375 -6.078125 -14.46875q-6.078125 -5.046875 -17.765625 -5.046875l-21.109375 0l0 39.03125l21.109375 0q11.6875 0 17.765625 -5.109375q6.078125 -5.125 6.078125 -14.40625z" fill-rule="nonzero"/></g></svg>