<svg version="1.1" viewBox="0.0 0.0 960.0 960.0" fill="none" stroke="none" stroke-linecap="square" stroke-miterlimit="10" xmlns:xlink="http://www.w3.org/1999/xlink" xmlns="http://www.w3.org/2000/svg"><clipPath id="p.0"><path d="m0 0l960.0 0l0 960.0l-960.0 0l0 -960.0z" clip-rule="nonzero"/></clipPath><g clip-path="url(#p.0)"><path fill="#ffffff" d="m0 0l960.0 0l0 960.0l-960.0 0z" fill-rule="evenodd"/><path fill="#000000" fill-opacity="0.0" d="m0 0.005249344l960.0 0l0 960.0l-960.0 0z" fill-rule="evenodd"/><path fill="#000000" fill-opacity="0.0" d="m10.621887 258.6932l556.92017 0l0 443.7161l-556.92017 0l0 -443.7161z" fill-rule="nonzero"/><path fill="#3d85c6" d="m124.55939 615.4203q-30.21875 0 -58.4375 -8.1875q-28.203125 -8.203125 -45.3125 -21.296875l20.03125 -44.421875q16.375 12.015625 38.9375 19.296875q22.578125 7.28125 45.140625 7.28125q25.109375 0 37.125 -7.453125q12.015625 -7.46875 12.015625 -19.84375q0 -9.109375 -7.109375 -15.109375q-7.09375 -6.0 -18.203125 -9.640625q-11.09375 -3.640625 -30.015625 -8.015625q-29.125 -6.90625 -47.6875 -13.828125q-18.5625 -6.921875 -31.859375 -22.203125q-13.28125 -15.296875 -13.28125 -40.765625q0 -22.203125 12.015625 -40.21875q12.015625 -18.03125 36.21875 -28.578125q24.203125 -10.5625 59.15625 -10.5625q24.390625 0 47.671875 5.828125q23.296875 5.828125 40.78125 16.75l-18.203125 44.765625q-35.3125 -20.015625 -70.625 -20.015625q-24.75 0 -36.578125 8.015625q-11.828125 8.0 -11.828125 21.09375q0 13.109375 13.640625 19.484375q13.65625 6.359375 41.6875 12.546875q29.125 6.921875 47.6875 13.84375q18.5625 6.90625 31.84375 21.84375q13.296875 14.921875 13.296875 40.390625q0 21.84375 -12.203125 39.859375q-12.1875 18.015625 -36.578125 28.578125q-24.390625 10.5625 -59.328125 10.5625zm239.1383 -1.46875q-31.296875 0 -56.234375 -12.921875q-24.9375 -12.921875 -38.953125 -35.84375q-14.015625 -22.9375 -14.015625 -52.0625q0 -29.109375 14.015625 -52.046875q14.015625 -22.9375 38.953125 -35.859375q24.9375 -12.921875 56.234375 -12.921875q30.9375 0 54.046875 12.921875q23.125 12.921875 33.6875 36.953125l-44.046875 23.65625q-15.296875 -26.9375 -44.046875 -26.9375q-22.203125 0 -36.765625 14.5625q-14.5625 14.5625 -14.5625 39.671875q0 25.125 14.5625 39.6875q14.5625 14.546875 36.765625 14.546875q29.125 0 44.046875 -26.921875l44.046875 24.015625q-10.5625 23.296875 -33.6875 36.40625q-23.109375 13.09375 -54.046875 13.09375zm120.48343 -198.73438l56.78128 0l0 195.82812l-56.78128 0l0 -195.82812zm28.390656 -27.296875q-15.6562805 0 -25.484406 -9.09375q-9.828125 -9.109375 -9.828125 -22.578125q0 -13.46875 9.828125 -22.5625q9.828125 -9.109375 25.484406 -9.109375q15.65625 0 25.484375 8.734375q9.828125 8.734375 9.828125 21.84375q0 14.1875 -9.828125 23.484375q-9.828125 9.28125 -25.484375 9.28125z" fill-rule="nonzero"/><path fill="#000000" d="m844.54205 412.2953q36.765625 0 58.421875 21.671875q21.65625 21.65625 21.65625 64.96875l0 112.109375l-56.78125 0l0 -103.375q0 -23.296875 -9.640625 -34.765625q-9.640625 -11.46875 -27.484375 -11.46875q-20.015625 0 -31.671875 12.921875q-11.640625 12.921875 -11.640625 38.40625l0 98.28125l-56.78125 0l0 -103.375q0 -46.234375 -37.140625 -46.234375q-19.65625 0 -31.3125 12.921875q-11.640625 12.921875 -11.640625 38.40625l0 98.28125l-56.78125 0l0 -195.82812l54.234375 0l0 22.5625q10.921875 -12.375 26.75 -18.921875q15.84375 -6.5625 34.765625 -6.5625q20.75 0 37.5 8.203125q16.75 8.1875 26.9375 23.828125q12.015625 -15.28125 30.390625 -23.65625q18.375 -8.375 40.21875 -8.375z" fill-rule="nonzero"/><path fill="#3d85c6" d="m10.621887 634.70526l556.92017 0l0 32.76001l-556.92017 0l0 -32.76001z" fill-rule="nonzero"/></g></svg>